<?xml version="1.0"?>
<svg xmlns="http://www.w3.org/2000/svg" viewBox="0 0 64 64" width="512px" height="512px"><g><g id="Global"><path d="M5.265,42h6.1a3.011,3.011,0,0,1,2.94,2.412l.5,2.5a2.026,2.026,0,0,0,.547,1.019L17,49.583l0-7.913a2.993,2.993,0,0,1,.605-1.807l2-2.663A3.032,3.032,0,0,1,22,36h1a3,3,0,0,0,3-3V30a3,3,0,0,0-3-3H13a3.015,3.015,0,0,1-3-3,3,3,0,0,1,3-3h4a1,1,0,0,0,1-1V15a3.015,3.015,0,0,1,3-3,1,1,0,0,0,1-1V9.265A25.983,25.983,0,0,0,5.265,42Z" data-original="#000000" class="active-path" data-old_color="#000000" fill="#FFFFFF"/><path d="M52.694,43.477A1.008,1.008,0,0,0,51.84,43H49.431c-1.989,2.625-3.469,4.408-3.663,4.641a1,1,0,0,1-1.536,0c-.193-.232-1.667-2.007-3.648-4.621a1,1,0,0,0-.877.814l-.44,2.66A2.989,2.989,0,0,1,36.31,49H32.36l-4.5,3.758a.982.982,0,0,0-.259,1.211L28.9,56.553A1,1,0,0,1,29,57v2.975c.332.012.665.025,1,.025A26.03,26.03,0,0,0,53.578,44.94Z" data-original="#000000" class="active-path" data-old_color="#000000" fill="#FFFFFF"/><path d="M27,59.822V57.236l-1.185-2.369a2.965,2.965,0,0,1,.771-3.65l4.493-3.755A2.006,2.006,0,0,1,32.36,47h3.95a1,1,0,0,0,.983-.834l.441-2.66a2.98,2.98,0,0,1,1.592-2.169C34.542,34.847,28,24.9,28,19A16.913,16.913,0,0,1,32,8.074C31.345,8.025,30.683,8,30,8a25.923,25.923,0,0,0-6,.707V11a3,3,0,0,1-3,3,.957.957,0,0,0-.694.288A.974.974,0,0,0,20,15v5a3,3,0,0,1-3,3H13a1,1,0,0,0-1,1,.957.957,0,0,0,.288.694A.974.974,0,0,0,13,25H23a5.006,5.006,0,0,1,5,5v3a5.006,5.006,0,0,1-5,5H22a1.017,1.017,0,0,0-.8.405l-2,2.665a.972.972,0,0,0-.2.6v7.92a1.988,1.988,0,0,1-1.231,1.842A2,2,0,0,1,15.583,51l-1.65-1.65a4.009,4.009,0,0,1-1.092-2.035l-.5-2.506A1,1,0,0,0,11.36,44H6A26.064,26.064,0,0,0,27,59.822Z" data-original="#000000" class="active-path" data-old_color="#000000" fill="#FFFFFF"/><path d="M54.4,42.439l.118.194A25.887,25.887,0,0,0,56,34c0-.145-.012-.284-.014-.428C54.321,36.234,52.534,38.8,50.922,41h.918A3.02,3.02,0,0,1,54.4,42.439Z" data-original="#000000" class="active-path" data-old_color="#000000" fill="#FFFFFF"/><path d="M45,45.417C48.162,41.489,60,26.292,60,19a15,15,0,0,0-30,0C30,26.3,41.838,41.489,45,45.417ZM45,10a9,9,0,1,1-9,9A9.011,9.011,0,0,1,45,10Z" data-original="#000000" class="active-path" data-old_color="#000000" fill="#FFFFFF"/><circle cx="45" cy="19" r="7" data-original="#000000" class="active-path" data-old_color="#000000" fill="#FFFFFF"/></g></g> </svg>
